<?xml version="1.0" standalone="no"?>
<!DOCTYPE svg PUBLIC "-//W3C//DTD SVG 20010904//EN"
 "http://www.w3.org/TR/2001/REC-SVG-20010904/DTD/svg10.dtd">
<svg version="1.0" xmlns="http://www.w3.org/2000/svg"
 width="685.000000pt" height="685.000000pt" viewBox="0 0 685.000000 685.000000"
 preserveAspectRatio="xMidYMid meet">
<metadata>
Created by potrace 1.14, written by Peter Selinger 2001-2017
</metadata>
<g transform="translate(0.000000,685.000000) scale(0.100000,-0.100000)"
fill="#000000" stroke="none">
<path d="M2976 6811 c-4 -5 -3 -17 0 -28 5 -17 5 -17 -6 0 -6 9 -16 15 -21 12
-5 -4 -6 -11 -3 -17 4 -7 2 -8 -5 -4 -6 4 -9 11 -6 16 3 5 0 12 -6 16 -8 5 -9
3 -4 -6 6 -10 4 -12 -10 -6 -18 6 -18 6 1 -15 l19 -22 -25 15 c-32 20 -75 17
-74 -5 1 -9 -2 -15 -6 -12 -5 3 -11 -1 -14 -7 -3 -7 -3 -2 0 12 4 18 3 21 -5
11 -8 -12 -12 -12 -25 -2 -16 13 -21 6 -18 -20 1 -4 -9 -9 -22 -11 -19 -4 -23
-1 -19 11 3 10 1 12 -4 6 -8 -10 -25 -16 -55 -18 -9 -1 -14 -5 -12 -9 3 -5 9
-6 14 -3 5 3 12 0 16 -6 4 -8 3 -9 -4 -5 -7 4 -12 1 -12 -6 0 -9 -3 -9 -8 -2
-8 13 -44 15 -36 2 3 -4 0 -8 -6 -8 -6 0 -8 -5 -4 -12 4 -7 3 -8 -4 -4 -6 4
-9 14 -6 24 5 13 4 14 -4 4 -5 -8 -11 -13 -13 -12 -10 4 -38 -13 -34 -20 3 -4
-2 -11 -11 -14 -10 -4 -13 -2 -8 7 4 6 -3 3 -15 -7 -23 -21 -42 -28 -78 -28
-14 0 -20 -4 -16 -11 4 -6 1 -7 -8 -1 -18 11 -79 13 -79 2 0 -4 -5 -8 -11 -8
-5 0 -7 5 -3 12 4 7 3 8 -4 4 -7 -4 -12 -15 -12 -24 0 -14 -1 -14 -12 1 -14
18 -28 13 -47 -18 -12 -19 -12 -19 -6 2 7 25 -12 26 -41 3 -10 -8 -15 -10 -11
-3 4 6 2 15 -4 19 -7 4 -9 3 -5 -4 4 -6 -1 -11 -11 -11 -44 -1 -93 -8 -99 -13
-3 -4 8 -5 25 -3 17 2 31 0 31 -4 0 -10 -61 -8 -78 3 -8 5 -10 1 -5 -11 6 -15
4 -16 -9 -5 -10 8 -19 9 -22 3 -3 -5 0 -11 6 -14 7 -2 10 -7 7 -11 -3 -3 -15
3 -26 14 -15 13 -23 16 -26 7 -3 -9 -7 -9 -19 0 -12 10 -15 10 -15 -2 0 -8 5
-11 10 -8 6 3 7 1 3 -5 -4 -8 -15 -8 -31 -2 -16 6 -25 6 -25 0 0 -6 -16 -10
-36 -10 -25 0 -33 -3 -28 -12 5 -8 0 -7 -11 2 -10 8 -16 10 -12 4 4 -7 0 -15
-9 -18 -22 -8 -26 -8 -19 4 3 6 -10 1 -29 -11 -20 -12 -36 -18 -36 -14 0 4 -7
2 -15 -5 -9 -7 -14 -19 -11 -26 3 -7 0 -16 -6 -20 -7 -4 -8 -3 -4 4 4 7 1 12
-9 12 -11 0 -15 -5 -12 -14 4 -11 1 -13 -10 -9 -11 4 -14 2 -9 -5 4 -7 2 -12
-3 -12 -6 0 -11 6 -11 13 0 8 -3 7 -10 -3 -6 -9 -5 -17 3 -23 7 -5 2 -5 -12
-2 -19 6 -23 4 -18 -8 3 -9 -1 -18 -9 -21 -9 -3 -13 -10 -10 -15 3 -5 -3 -7
-14 -4 -12 3 -20 0 -20 -6 0 -7 5 -9 12 -5 7 5 8 3 3 -5 -5 -9 -10 -10 -18 -2
-6 6 -16 11 -22 11 -5 0 -3 -4 5 -10 12 -8 12 -10 -3 -16 -9 -3 -14 -11 -10
-18 4 -6 -1 -5 -10 3 -10 8 -20 11 -24 7 -3 -3 -1 -6 5 -6 7 0 12 -5 12 -11 0
-5 -4 -8 -9 -5 -5 3 -11 -3 -14 -14 -4 -14 -10 -18 -23 -13 -13 5 -16 3 -11
-10 4 -10 2 -16 -6 -14 -7 1 -11 -6 -9 -15 3 -20 -14 -33 -24 -17 -4 8 -3 9 4
5 7 -4 12 -2 12 3 0 6 -7 11 -15 11 -8 0 -15 -7 -15 -15 0 -8 -5 -15 -11 -15
-5 0 -7 5 -3 12 4 7 3 8 -5 4 -6 -4 -9 -12 -6 -17 4 -5 1 -9 -4 -9 -6 0 -11
-5 -11 -11 0 -5 6 -7 13 -4 6 4 3 -1 -8 -10 -11 -9 -19 -21 -17 -26 1 -6 -1
-8 -6 -5 -4 2 -14 1 -22 -5 -10 -6 -11 -9 -2 -9 6 0 12 -4 12 -9 0 -5 -10 -6
-22 -3 -22 5 -22 5 -5 -12 22 -22 22 -29 -1 -17 -14 8 -18 5 -19 -11 -1 -11
-10 -27 -20 -35 -10 -8 -12 -12 -5 -8 16 8 15 -4 -3 -35 -10 -18 -10 -28 -2
-38 8 -10 7 -12 -3 -10 -9 2 -15 -6 -16 -19 -1 -13 -7 -29 -14 -38 -7 -8 -9
-15 -5 -15 4 0 1 -8 -6 -17 -13 -16 -12 -17 3 -4 12 9 18 10 18 2 0 -6 -7 -14
-15 -17 -12 -5 -13 -10 -4 -20 9 -11 7 -15 -6 -20 -13 -5 -14 -9 -4 -15 10 -6
10 -11 1 -22 -7 -7 -9 -17 -5 -21 4 -4 0 -4 -10 0 -21 8 -22 -2 -2 -23 12 -12
13 -18 4 -29 -9 -11 -8 -14 1 -14 8 0 11 -3 7 -6 -3 -3 -11 -3 -17 1 -8 5 -8
10 0 20 7 8 7 16 2 19 -6 3 -12 -4 -15 -16 -4 -12 -2 -25 3 -28 5 -3 7 -18 5
-33 -3 -16 -1 -27 5 -27 6 0 8 -4 5 -10 -4 -6 1 -7 12 -3 15 6 16 4 5 -9 -10
-13 -10 -17 0 -22 7 -3 3 -4 -10 -2 -12 2 -20 0 -16 -5 3 -5 12 -9 20 -9 8 0
14 -7 14 -16 0 -8 4 -13 9 -9 5 3 12 1 15 -4 7 -11 -13 -9 -32 2 -7 5 -12 4
-12 -2 0 -6 5 -11 11 -11 5 0 8 -4 4 -9 -3 -5 -2 -12 3 -15 5 -3 8 -21 7 -40
-1 -20 2 -36 8 -36 5 0 6 8 3 17 -4 10 -3 14 1 9 13 -13 11 -57 -2 -46 -8 7
-12 5 -12 -5 0 -8 4 -15 8 -15 4 0 10 -7 13 -16 5 -13 3 -14 -7 -6 -10 8 -13
6 -13 -8 0 -10 3 -17 7 -14 10 6 18 -21 11 -33 -4 -5 -14 -13 -22 -16 -11 -4
-10 -6 5 -7 11 -1 23 -2 28 -1 4 0 7 -4 7 -10 0 -6 -9 -8 -22 -4 -13 3 -18 3
-12 -2 15 -11 25 -55 11 -46 -7 4 -6 -1 2 -10 7 -9 18 -14 24 -10 6 3 7 1 3
-6 -4 -6 -11 -9 -16 -6 -4 3 -10 -1 -13 -9 -6 -15 9 -16 33 -2 8 5 4 -3 -10
-19 -14 -16 -19 -25 -12 -21 6 4 12 2 12 -4 0 -6 5 -8 12 -4 7 4 8 3 4 -5 -4
-6 -12 -9 -17 -6 -5 4 -9 1 -9 -4 0 -6 6 -11 13 -11 8 0 7 -4 -3 -10 -8 -5
-10 -10 -5 -10 6 0 15 -8 22 -18 9 -15 8 -19 -3 -19 -7 0 -11 4 -8 8 2 4 0 10
-5 14 -11 6 -6 -31 7 -49 13 -17 -2 -71 -18 -61 -4 3 -10 -4 -13 -16 -4 -16
-3 -18 8 -9 10 8 15 8 21 -1 4 -8 3 -9 -4 -5 -11 6 -16 -5 -13 -26 0 -4 -7 -4
-17 -1 -15 6 -15 5 -3 -10 12 -15 10 -18 -10 -26 -13 -5 -18 -10 -10 -10 9 -1
10 -5 4 -13 -6 -7 -10 -25 -9 -40 1 -16 -1 -28 -4 -28 -4 0 -6 -10 -5 -22 1
-13 -3 -26 -9 -30 -7 -5 -4 -13 9 -23 20 -15 20 -15 0 -8 -18 6 -18 5 -6 -10
7 -9 9 -17 4 -17 -5 0 -9 -11 -9 -25 0 -16 5 -24 12 -21 9 3 11 -2 7 -17 -3
-12 -5 -30 -5 -40 1 -10 -4 -15 -10 -11 -7 4 -8 2 -4 -4 4 -6 14 -8 24 -5 15
6 15 5 2 -11 -12 -16 -12 -19 3 -27 21 -12 22 -32 3 -48 -18 -15 -17 -48 1
-48 10 0 10 4 3 11 -13 13 -13 26 2 26 6 0 8 -3 5 -7 -4 -3 1 -15 10 -26 10
-11 13 -17 7 -14 -7 4 -17 0 -24 -8 -11 -13 -10 -14 5 -9 13 5 16 3 13 -7 -3
-8 -11 -13 -17 -11 -9 2 -9 -3 -2 -17 6 -10 7 -22 3 -26 -4 -5 -2 -5 5 -1 8 4
11 -1 10 -13 -1 -15 -4 -17 -14 -9 -10 8 -12 7 -7 -6 3 -9 11 -16 18 -16 8 0
8 -2 -1 -8 -8 -5 -9 -22 -2 -57 15 -85 27 -238 22 -273 -6 -35 -21 -47 -68
-55 -16 -3 -37 -8 -45 -11 -8 -3 -28 -8 -44 -10 -16 -3 -33 -11 -38 -18 -4 -7
-8 -9 -8 -4 0 5 -7 3 -15 -4 -8 -6 -19 -9 -25 -5 -5 3 -10 -2 -11 -12 0 -11
-3 -13 -6 -5 -7 18 -23 4 -17 -16 5 -14 4 -15 -5 -2 -10 13 -12 13 -21 0 -7
-11 -10 -11 -10 -2 0 7 -5 10 -10 7 -6 -4 -8 -10 -6 -14 3 -4 0 -8 -7 -8 -7 0
-21 -4 -31 -9 -14 -5 -17 -4 -11 5 4 7 -5 5 -21 -5 -16 -10 -33 -24 -37 -31
-4 -7 -15 -13 -23 -13 -8 0 -13 -4 -10 -9 3 -5 -1 -12 -10 -15 -8 -3 -12 -11
-8 -17 5 -8 3 -9 -6 -4 -10 6 -12 3 -8 -13 4 -12 2 -20 -3 -16 -14 8 -11 30 6
44 8 7 15 18 15 24 0 6 -5 3 -11 -7 -6 -9 -15 -15 -20 -11 -5 3 -9 2 -8 -3 3
-19 -2 -34 -10 -29 -4 3 -19 -6 -31 -19 -13 -14 -22 -25 -19 -25 2 -1 98 -3
214 -6 251 -7 235 -6 230 -15 -3 -3 1 -12 9 -18 11 -9 15 -9 18 1 3 8 7 6 11
-6 4 -9 3 -15 -2 -11 -5 3 -11 0 -13 -6 -2 -7 -23 -6 -66 4 -74 17 -218 21
-286 8 -34 -6 -55 -6 -67 2 -10 6 -21 9 -24 5 -22 -22 8 -151 39 -167 17 -8
18 -10 4 -10 -9 -1 -29 11 -43 26 -25 27 -27 37 -29 120 -1 23 -7 48 -14 55
-11 11 -12 10 -6 -6 6 -15 4 -18 -9 -13 -9 3 -16 3 -16 -1 3 -20 -3 -23 -19
-11 -15 13 -16 12 -3 -4 11 -14 17 -15 30 -5 12 10 12 8 -2 -8 -9 -11 -14 -24
-10 -29 5 -4 -3 -4 -17 -1 -19 6 -21 5 -10 -3 8 -6 11 -11 6 -11 -5 0 -2 -8 5
-17 10 -12 11 -15 1 -9 -10 6 -11 1 -7 -21 14 -62 27 -84 46 -78 22 7 24 -1 5
-20 -7 -8 -17 -11 -21 -7 -4 4 0 -5 9 -19 9 -14 13 -30 9 -34 -5 -5 1 -3 11 5
13 10 17 10 12 3 -4 -7 -2 -13 4 -13 6 0 14 10 19 21 7 20 8 20 20 -10 8 -18
18 -28 25 -24 7 4 7 2 -1 -7 -13 -14 -6 -43 8 -34 5 3 6 -2 3 -10 -3 -9 -1
-16 5 -16 6 0 11 6 11 14 0 8 5 18 12 22 7 4 8 3 4 -4 -5 -8 -2 -10 9 -6 14 6
14 8 -2 19 -10 8 -16 16 -13 19 10 9 50 -6 44 -16 -4 -6 3 -5 14 1 14 8 23 8
27 1 4 -6 15 -8 26 -5 11 4 19 2 19 -5 0 -6 4 -8 10 -5 6 3 10 1 10 -6 0 -8 4
-8 15 1 8 7 15 8 15 2 0 -5 10 -12 22 -15 22 -6 22 -6 4 8 -24 18 -16 19 19 3
19 -8 32 -8 52 1 27 11 27 11 8 -5 -20 -16 -20 -16 2 -10 12 4 24 2 28 -4 4
-7 17 -3 36 11 25 17 30 18 35 5 3 -8 14 -13 25 -11 10 2 19 0 19 -6 0 -5 -5
-9 -11 -9 -5 0 -7 -5 -3 -11 5 -8 10 -7 16 4 5 9 15 14 23 11 8 -4 12 -11 8
-18 -4 -6 2 -4 12 4 15 12 17 12 10 1 -6 -11 -4 -13 9 -8 9 4 28 0 42 -9 16
-11 24 -12 24 -4 0 7 8 9 23 5 21 -7 21 -6 3 7 -14 11 -16 17 -7 22 16 10 25
1 27 -29 0 -15 -3 -22 -10 -18 -8 5 -8 3 0 -8 6 -8 12 -32 12 -54 1 -22 6 -41
11 -43 6 -2 6 -15 1 -33 -7 -22 -5 -31 5 -35 18 -7 27 -32 14 -39 -5 -4 -8 -1
-7 6 2 6 -4 14 -12 16 -12 4 -12 3 -2 -5 8 -5 13 -12 13 -16 -3 -20 0 -26 11
-20 7 5 8 3 3 -7 -14 -21 -13 -68 1 -62 15 6 6 -47 -13 -65 -7 -8 -10 -19 -6
-25 9 -15 12 -46 4 -45 -19 2 -24 -4 -11 -12 10 -6 11 -10 3 -10 -7 0 -13 -5
-13 -11 0 -5 5 -7 12 -3 7 5 8 3 3 -6 -6 -10 -11 -9 -21 5 -10 14 -11 22 -2
32 6 7 9 16 6 19 -8 7 -55 -13 -64 -27 -4 -8 -3 -10 4 -5 18 11 14 0 -5 -15
-11 -10 -14 -10 -9 -1 9 16 -16 16 -32 0 -9 -9 -12 -8 -12 4 0 21 -36 29 -51
12 -8 -10 -16 -11 -22 -5 -5 5 -16 7 -25 4 -11 -5 -13 -3 -7 7 5 8 4 11 -3 7
-13 -9 -44 2 -37 13 3 5 0 12 -6 16 -8 4 -9 3 -5 -4 4 -7 1 -12 -9 -12 -8 0
-20 11 -25 24 -9 26 -30 44 -30 27 0 -6 5 -11 12 -11 6 0 8 -3 4 -7 -4 -4 -16
3 -28 17 -11 14 -16 18 -12 10 7 -13 5 -13 -9 -1 -9 7 -14 17 -11 22 3 5 2 8
-3 7 -13 -4 -63 44 -56 55 3 6 1 7 -5 3 -14 -8 -94 115 -87 134 4 8 3 11 -1 7
-9 -8 -39 32 -39 53 0 21 -14 40 -28 40 -8 0 -8 -3 1 -9 8 -4 13 -11 13 -15
-1 -3 -1 -7 0 -8 0 -2 2 -12 4 -23 2 -11 8 -21 14 -23 5 -2 8 -9 5 -15 -15
-41 168 -263 252 -304 67 -34 193 -62 272 -60 54 2 71 -1 67 -11 -3 -9 4 -11
24 -7 33 6 36 1 75 -135 13 -47 36 -118 50 -159 28 -81 33 -121 14 -121 -7 0
-5 -5 5 -11 9 -6 15 -14 12 -19 -3 -4 5 -6 17 -2 14 3 19 1 14 -6 -4 -7 -1
-26 7 -44 8 -18 19 -51 25 -73 5 -22 21 -71 35 -110 60 -170 137 -424 137
-454 0 -27 3 -32 18 -27 14 5 13 3 -3 -10 -20 -16 -20 -16 3 -11 12 3 20 1 17
-3 -3 -5 -1 -11 4 -15 6 -3 7 -15 1 -29 -6 -17 -5 -23 5 -23 8 0 12 3 10 7 -2
4 2 7 10 7 8 0 13 -3 10 -5 -3 -3 0 -11 7 -19 6 -7 8 -16 4 -20 -3 -3 -6 -1
-6 6 0 7 -5 9 -12 5 -7 -4 -8 -3 -4 4 5 8 1 10 -10 5 -15 -5 -15 -7 0 -15 9
-5 13 -14 10 -20 -5 -7 -2 -8 5 -4 8 5 11 3 10 -5 -3 -19 11 -49 23 -49 5 0 6
5 3 10 -3 6 -1 10 4 10 15 0 14 -13 -1 -29 -11 -11 -9 -13 7 -9 16 4 21 0 22
-15 1 -11 9 -25 18 -30 13 -7 14 -11 3 -25 -11 -13 -11 -15 3 -10 24 9 41 -11
24 -29 -20 -20 -8 -44 20 -39 17 3 22 0 19 -9 -3 -7 -1 -16 5 -19 14 -9 2 -38
-13 -29 -6 3 -7 2 -3 -3 5 -5 14 -9 20 -9 7 -1 11 -6 10 -13 -2 -7 2 -12 8
-12 5 0 8 -3 6 -7 -3 -5 7 -17 22 -27 26 -19 26 -19 10 0 -35 43 -48 71 -34
71 8 0 14 -3 13 -6 -1 -19 16 -50 25 -44 5 3 7 1 3 -5 -3 -6 -1 -14 4 -17 8
-5 5 -14 -7 -28 -10 -11 -13 -17 -7 -14 7 4 17 0 24 -8 7 -8 9 -15 5 -15 -4 0
-2 -7 5 -15 10 -12 16 -13 28 -3 13 11 14 11 8 0 -4 -7 -3 -19 4 -27 7 -8 7
-15 1 -19 -14 -9 -2 -36 14 -36 8 0 17 -5 21 -12 4 -6 3 -8 -4 -4 -7 4 -10 -2
-9 -14 1 -12 7 -18 14 -16 6 3 10 0 8 -7 -6 -16 103 -175 135 -198 21 -16 284
-105 330 -112 8 -1 21 -7 29 -11 11 -7 13 -5 8 7 -4 11 -2 14 8 10 8 -3 12
-10 8 -17 -4 -6 1 -5 10 3 10 8 21 11 24 7 4 -4 1 -11 -7 -16 -11 -7 -11 -10
-2 -10 7 0 15 7 18 15 4 8 10 15 16 15 5 0 7 -4 3 -9 -3 -5 0 -13 6 -17 7 -4
9 -3 6 3 -4 6 0 16 8 23 13 11 14 10 8 -6 -6 -16 -4 -17 8 -7 18 14 34 12 75
-10 17 -9 35 -13 39 -9 5 4 4 0 -1 -8 -12 -20 -14 -41 -4 -35 5 3 11 1 15 -4
3 -6 13 -8 23 -5 14 5 13 2 -3 -11 -20 -17 -19 -17 8 -11 16 4 27 2 27 -4 0
-6 -4 -8 -10 -5 -5 3 -10 1 -10 -4 0 -6 5 -11 12 -11 6 0 8 -3 5 -6 -4 -4 3
-20 15 -37 12 -17 17 -28 11 -24 -5 3 -19 -1 -29 -9 -10 -9 -14 -13 -7 -10 16
8 40 -2 47 -20 3 -8 2 -12 -3 -9 -15 9 -18 -48 -4 -77 8 -16 16 -28 19 -28 2
0 0 9 -6 21 -7 11 -9 23 -6 27 3 3 6 0 6 -7 0 -7 4 -9 10 -6 6 3 7 -1 4 -9 -4
-10 -1 -16 7 -16 11 0 11 -3 -1 -10 -8 -5 -11 -10 -6 -10 5 0 3 -7 -4 -15 -10
-13 -11 -18 -1 -28 10 -9 11 -8 5 8 -4 11 -4 17 0 13 9 -8 15 -57 7 -56 -3 0
-13 0 -21 -1 -13 -1 -13 -2 0 -11 9 -6 715 -10 1918 -10 l1902 0 0 305 0 304
-45 -3 c-25 -2 -48 1 -51 5 -3 5 -10 9 -15 9 -6 0 -7 -5 -3 -12 5 -7 3 -8 -7
-2 -19 12 -29 12 -64 -2 -16 -6 -39 -10 -50 -8 -10 1 -24 -1 -30 -6 -12 -10
-34 -8 -52 3 -13 8 -14 7 -17 -15 -2 -18 -37 -22 -48 -6 -7 10 -8 9 -4 -5 4
-13 1 -17 -12 -15 -9 2 -21 8 -25 13 -5 6 -5 -1 -1 -15 6 -23 6 -24 -12 -10
-10 8 -16 10 -12 6 7 -9 -28 -41 -45 -41 -4 0 -19 -25 -33 -55 l-25 -55 -29
35 c-16 19 -35 35 -42 35 -7 1 -12 7 -10 14 1 7 -2 10 -8 6 -6 -3 -8 -10 -5
-15 3 -4 -4 -10 -16 -13 -17 -5 -18 -3 -7 10 12 15 11 15 -10 4 -14 -7 -21
-18 -18 -26 3 -9 0 -12 -10 -8 -16 6 -18 14 -6 29 4 5 -1 1 -10 -9 -10 -11
-18 -15 -18 -10 0 5 -7 10 -15 10 -10 0 -12 -4 -5 -12 7 -9 5 -17 -7 -26 -11
-9 -14 -10 -9 -1 4 7 2 12 -4 12 -6 0 -9 4 -6 8 2 4 -4 8 -14 9 -11 1 -22 -2
-25 -8 -4 -5 2 -6 12 -2 19 7 18 5 -11 -17 -13 -10 -17 -10 -12 -3 4 8 1 13
-9 13 -9 0 -14 -4 -11 -8 3 -5 -1 -9 -9 -9 -8 0 -12 4 -8 9 3 6 -3 9 -13 8
-35 -4 -54 0 -54 11 0 5 4 8 9 4 5 -3 12 -1 15 4 4 5 -2 8 -11 6 -10 -1 -27 5
-37 14 -19 16 -19 15 -3 -9 16 -25 16 -26 -6 -27 -12 0 -16 1 -9 4 16 6 5 23
-15 23 -10 0 -13 -6 -8 -17 5 -14 4 -15 -6 -6 -10 10 -9 16 1 28 10 12 11 18
1 28 -10 9 -11 8 -5 -7 5 -13 4 -17 -3 -13 -6 4 -13 2 -15 -4 -2 -6 -9 2 -16
17 -11 27 -11 27 3 10 8 -11 15 -15 15 -10 0 17 -22 33 -38 27 -9 -4 -13 -2
-9 3 3 6 1 16 -4 24 -8 13 -12 12 -24 -4 -8 -11 -15 -15 -15 -10 0 6 5 15 12
22 7 7 8 12 2 12 -6 0 -15 -10 -21 -22 -8 -19 -11 -16 -23 28 -7 27 -18 58
-23 69 -6 11 -12 27 -13 35 -7 41 -12 52 -25 61 -10 6 -10 9 -1 9 6 0 12 5 12
11 0 5 -5 7 -11 3 -8 -5 -8 -1 0 14 7 13 7 23 2 27 -6 3 -8 21 -7 40 2 19 1
37 -3 40 -4 2 -6 18 -3 36 3 18 1 29 -5 26 -5 -3 -9 3 -9 14 0 13 5 18 16 14
11 -4 10 -1 -3 9 -10 8 -15 20 -11 30 3 9 1 16 -6 16 -6 0 -8 -5 -4 -12 4 -7
3 -8 -5 -4 -8 5 -9 12 -2 20 8 10 9 65 1 74 -1 1 -3 8 -4 15 -1 6 -7 11 -14
10 -7 -2 -12 2 -12 7 0 6 5 10 10 10 6 0 10 8 10 18 0 10 6 24 13 31 6 7 8 12
2 11 -24 -5 -27 1 -9 21 19 22 19 22 -3 8 -13 -8 -23 -17 -23 -21 0 -5 -5 -8
-12 -8 -6 0 -2 10 10 23 24 26 28 37 11 37 -5 0 -7 -6 -3 -13 4 -6 3 -9 -1 -4
-5 4 -10 15 -11 25 -1 9 -5 27 -8 40 -3 13 -1 20 5 17 5 -4 6 -11 3 -17 -4 -7
-2 -8 4 -4 8 4 10 2 6 -7 -3 -8 -2 -17 3 -20 4 -3 9 6 9 19 1 13 -2 24 -7 24
-5 0 -8 10 -7 23 0 12 0 27 -2 32 -6 24 1 56 11 50 6 -4 5 2 -3 14 -7 12 -16
21 -21 21 -4 0 -5 11 -3 25 3 13 0 27 -5 30 -5 4 -9 12 -9 18 0 8 3 7 9 -2 7
-11 11 -10 18 5 5 11 9 26 8 34 0 8 4 19 10 23 6 5 3 7 -7 4 -11 -4 -17 0 -17
11 -6 108 -5 144 1 148 5 3 6 10 3 15 -9 13 9 11 24 -3 10 -11 11 -10 6 4 -4
9 -13 19 -21 22 -8 3 -14 11 -14 18 0 8 3 9 8 3 4 -5 16 -11 27 -13 12 -2 16
0 9 5 -16 12 -24 52 -12 60 6 3 8 2 5 -4 -3 -5 0 -10 8 -10 8 0 12 4 9 8 -3 5
0 19 6 31 10 21 10 21 -3 6 -18 -22 -33 -23 -41 -2 -6 15 -4 15 11 3 14 -11
15 -12 9 0 -5 8 -4 16 4 21 9 5 9 9 1 14 -6 4 -11 2 -11 -3 0 -6 -4 -11 -8
-11 -5 0 -9 7 -9 15 0 8 4 15 9 15 5 0 6 5 3 10 -3 5 -1 10 4 10 6 0 11 6 11
14 0 7 6 19 14 25 7 6 11 22 8 36 -3 16 0 25 9 25 7 0 9 3 6 7 -4 3 -1 13 6
21 10 13 9 14 -3 7 -8 -4 -4 4 10 20 14 16 19 25 13 21 -15 -9 -18 10 -3 19 6
4 8 11 5 16 -4 5 0 9 8 9 9 0 13 11 12 33 -1 17 2 46 7 62 5 17 11 50 15 75 3
25 9 50 14 56 5 6 6 13 3 16 -2 3 9 70 26 149 41 191 39 182 45 277 3 57 12
102 28 140 13 32 30 73 36 92 7 19 26 71 43 115 17 44 32 100 34 125 2 25 4
47 5 50 4 11 7 26 8 48 1 14 5 21 12 16 6 -3 3 6 -7 22 l-18 29 24 -20 c19
-16 22 -16 11 -2 -8 9 -11 20 -8 24 4 3 1 13 -6 21 -10 13 -9 15 5 10 20 -8
18 19 -3 33 -12 7 -12 9 1 9 13 0 13 1 0 10 -13 9 -13 10 0 10 13 0 13 1 0 10
-8 5 -11 10 -6 10 5 0 3 7 -4 15 -10 12 -8 13 10 10 21 -4 21 -3 7 19 -12 17
-13 26 -4 35 8 8 8 11 0 11 -13 0 -11 25 2 37 4 4 5 3 2 -3 -4 -7 1 -18 11
-25 15 -12 15 -12 5 1 -11 15 -13 20 -13 41 0 5 -4 8 -8 5 -5 -3 -8 7 -6 22 1
15 3 27 4 27 1 0 3 8 5 17 2 9 -4 19 -12 22 -9 4 -12 2 -7 -7 4 -6 3 -8 -1 -4
-11 10 -16 39 -6 33 16 -10 4 36 -14 52 -18 16 -18 16 -5 -3 12 -17 12 -18 0
-8 -18 17 -22 43 -5 37 17 -7 14 22 -5 39 -9 8 -11 8 -6 0 3 -6 2 -14 -3 -17
-10 -7 -9 13 2 31 4 6 3 14 -3 18 -6 4 -8 11 -5 16 3 5 -1 6 -9 3 -11 -4 -16
0 -16 14 0 12 -10 28 -21 36 -15 10 -20 22 -16 35 3 11 1 19 -3 18 -5 -1 -15
6 -23 17 -12 16 -14 16 -14 2 0 -9 4 -16 9 -16 5 0 7 -4 4 -9 -4 -5 0 -12 6
-14 9 -4 10 -6 1 -6 -19 -1 -24 12 -38 89 -3 21 -6 166 -5 265 0 17 -3 47 -6
68 -3 22 -1 43 6 52 8 10 8 24 0 54 -6 23 -8 63 -4 91 4 30 2 68 -6 95 -9 33
-10 48 -2 58 9 10 8 17 -1 27 -9 10 -9 11 1 6 20 -12 14 13 -12 47 -13 18 -22
40 -21 49 2 10 -1 20 -6 24 -5 3 -9 12 -9 20 0 9 5 12 12 8 7 -4 8 -3 4 5 -4
6 -12 9 -17 6 -5 -4 -14 -3 -19 0 -11 7 5 45 24 57 8 6 7 8 -1 8 -6 0 -15 -4
-18 -10 -3 -5 -12 -10 -18 -10 -8 0 -7 4 2 9 13 8 13 12 0 27 -9 11 -9 15 -1
10 8 -5 12 0 12 13 0 12 -6 21 -14 21 -19 0 -27 25 -13 40 9 9 9 11 1 7 -10
-6 -24 23 -28 55 -1 3 -5 10 -10 15 -5 5 -6 3 -2 -4 4 -7 2 -13 -4 -13 -7 0
-9 7 -6 16 3 9 6 18 6 21 0 3 8 -1 17 -8 11 -9 9 -3 -6 19 -12 18 -27 29 -33
26 -7 -4 -8 -2 -4 5 4 6 11 9 16 6 5 -3 11 -1 15 5 3 5 -1 10 -9 10 -12 0 -13
6 -6 30 8 29 6 34 -14 31 -5 -1 -6 5 -2 14 3 9 -1 18 -9 21 -8 4 -13 10 -10
14 3 4 -2 10 -10 14 -8 3 -15 12 -15 21 0 8 -5 15 -11 15 -5 0 -7 5 -4 10 3 6
1 10 -5 10 -6 0 -8 5 -5 10 3 6 2 10 -2 10 -5 0 -15 16 -22 35 -7 19 -17 35
-22 35 -6 0 -7 4 -4 10 7 12 -19 70 -44 97 -19 20 -41 57 -41 68 0 3 10 3 22
0 18 -6 20 -4 13 11 -4 11 -10 27 -12 36 -3 10 -9 15 -14 12 -5 -3 -9 4 -9 15
0 11 -6 26 -13 33 -7 7 -14 16 -15 21 -2 10 -34 59 -49 75 -6 6 -15 21 -18 32
-3 11 -11 20 -16 20 -5 0 -9 6 -9 14 0 8 -10 23 -22 33 -13 10 -27 27 -33 37
-5 10 -14 18 -19 19 -5 1 -25 18 -46 37 -50 48 -93 80 -107 80 -6 0 -13 4 -15
8 -7 18 -100 73 -113 68 -8 -3 -17 0 -21 6 -5 7 -2 8 6 3 8 -5 11 -4 7 1 -3 5
-40 21 -81 34 -60 20 -76 29 -77 45 l0 20 -9 -20 c-5 -11 -9 -14 -9 -7 -1 7
-6 10 -12 6 -6 -3 -15 0 -20 7 -7 11 -9 11 -9 1 0 -10 -7 -9 -29 2 -16 9 -31
13 -34 10 -3 -3 -3 5 0 18 4 18 3 20 -6 8 -9 -13 -11 -13 -11 2 0 9 3 18 8 21
4 2 2 2 -5 1 -7 -2 -15 1 -17 5 -3 5 -16 8 -28 7 -13 -1 -45 7 -73 18 -59 23
-134 29 -154 13 -12 -9 -13 -9 -7 1 4 7 2 12 -6 13 -7 0 -21 2 -31 4 -9 2 -15
-1 -11 -6 3 -5 0 -9 -5 -9 -6 0 -11 6 -11 13 0 8 -4 7 -10 -3 -6 -10 -10 -11
-10 -2 0 6 -5 12 -11 12 -5 0 -7 -6 -3 -12 5 -9 2 -9 -9 1 -9 7 -17 10 -17 7
0 -4 -8 -3 -17 3 -12 6 -21 5 -31 -7 -7 -10 -11 -11 -7 -4 3 6 2 12 -4 12 -5
0 -17 3 -27 7 -11 4 -15 3 -10 -5 3 -6 1 -14 -5 -18 -7 -4 -9 -3 -6 3 4 6 -1
14 -11 18 -27 12 -43 14 -36 4 8 -14 -40 -11 -55 4 -11 10 -13 10 -7 0 5 -9 0
-13 -14 -13 -12 0 -19 4 -16 8 2 4 -4 9 -15 9 -10 1 -19 -2 -19 -8 0 -5 -5 -9
-11 -9 -5 0 -7 6 -4 13 4 6 -1 3 -9 -7 -16 -20 -16 -20 -16 0 0 14 -2 16 -9 5
-7 -11 -9 -11 -13 0 -4 12 -7 12 -21 0 -11 -8 -17 -9 -17 -3 0 6 -7 9 -15 6
-8 -4 -13 -9 -11 -13 2 -3 -11 -7 -30 -8 -18 -1 -44 -9 -56 -17 -12 -9 -30
-16 -39 -16 -9 0 -26 -9 -39 -20 -13 -11 -29 -20 -36 -20 -7 0 -14 -6 -17 -12
-3 -10 -9 -10 -24 -1 -16 9 -20 8 -20 -3 0 -7 5 -11 11 -8 6 3 0 -3 -14 -14
-14 -12 -27 -18 -30 -16 -2 3 2 9 10 14 13 8 13 11 1 22 -9 8 -11 9 -7 1 8
-14 -10 -27 -19 -13 -3 5 -12 10 -18 10 -7 0 -6 -4 3 -10 12 -8 10 -10 -8 -10
-13 0 -20 -4 -17 -10 10 -16 -1 -11 -16 7 -10 11 -10 14 -1 9 6 -4 12 -2 12 3
0 14 -17 14 -25 1 -4 -6 -12 -7 -18 -3 -7 4 -21 7 -32 6 -16 -1 -17 -1 -2 3
12 4 16 13 14 30 -3 23 -22 35 -22 15 0 -5 -3 -12 -7 -16 -9 -10 -4 17 7 34 5
10 4 16 -3 19 -7 2 -12 9 -12 15 0 8 4 7 12 -1 17 -17 28 -15 28 4 0 8 -5 12
-11 8 -7 -4 -9 2 -7 17 2 17 -1 23 -12 21 -8 -2 -12 0 -7 4 9 9 -23 45 -34 38
-5 -3 -9 0 -9 6 0 6 -10 15 -22 19 -19 8 -15 9 19 8 23 -1 40 -4 38 -7 -2 -4
3 -7 11 -7 10 0 6 9 -13 29 -16 17 -30 25 -36 19 -13 -13 -58 9 -50 23 4 6 -1
5 -10 -3 -12 -9 -17 -10 -17 -2 0 7 -5 9 -10 6 -6 -4 -18 -1 -27 7 -9 7 -14 8
-10 2 4 -7 0 -15 -9 -18 -24 -9 -31 -7 -14 4 16 11 5 13 -53 12 -15 0 -25 3
-23 7 3 4 -1 8 -8 8 -9 0 -12 -7 -8 -16 5 -14 4 -14 -13 -1 -11 9 -16 10 -11
3 4 -7 4 -13 -1 -14 -4 0 -18 -2 -30 -3 -21 -2 -28 5 -24 27 1 10 -7 9 -13 -2z
m138 -19 c3 -5 -1 -9 -9 -9 -8 0 -12 4 -9 9 3 4 7 8 9 8 2 0 6 -4 9 -8z m91
-23 c-4 -5 2 -9 12 -10 10 0 13 -3 7 -5 -6 -3 -22 0 -35 5 -18 7 -20 10 -6 10
11 1 15 5 11 13 -4 7 -3 8 5 4 6 -4 9 -12 6 -17z m-410 -19 c3 -5 2 -10 -4
-10 -5 0 -13 5 -16 10 -3 6 -2 10 4 10 5 0 13 -4 16 -10z m-208 -69 c0 -11 -5
-18 -9 -15 -4 3 -5 11 -1 19 7 21 12 19 10 -4z m-300 -76 c0 -8 -4 -12 -9 -9
-5 3 -6 10 -3 15 9 13 12 11 12 -6z m93 9 c0 -8 -19 -13 -24 -6 -3 5 1 9 9 9
8 0 15 -2 15 -3z m-150 -14 c0 -5 -5 -10 -11 -10 -5 0 -7 5 -4 10 3 6 8 10 11
10 2 0 4 -4 4 -10z m-54 -12 c4 -6 3 -8 -4 -4 -6 3 -15 -2 -21 -11 -6 -10 -11
-13 -11 -7 0 9 19 34 26 34 2 0 6 -5 10 -12z m2419 -38 c3 -5 1 -10 -4 -10 -6
0 -11 5 -11 10 0 6 2 10 4 10 3 0 8 -4 11 -10z m-2825 -54 c0 -2 -7 -7 -16
-10 -8 -3 -12 -2 -9 4 6 10 25 14 25 6z m-41 -29 c0 -9 -2 -8 -6 1 -2 6 -10 9
-15 6 -7 -4 -8 -2 -4 5 9 13 26 5 25 -12z m-544 -857 c3 -6 -1 -7 -9 -4 -18 7
-21 14 -7 14 6 0 13 -4 16 -10z m4435 -258 c0 -5 -7 -9 -15 -9 -8 0 -12 4 -9
9 3 4 9 8 15 8 5 0 9 -4 9 -8z m96 -341 c2 -10 0 -11 -9 -2 -6 6 -12 21 -14
33 -3 22 -2 22 9 3 7 -11 13 -26 14 -34z m-4526 -375 c0 -2 -8 -10 -17 -17
-16 -13 -17 -12 -4 4 13 16 21 21 21 13z m-3 -91 c0 -8 -4 -12 -9 -9 -5 3 -6
10 -3 15 9 13 12 11 12 -6z m4673 -495 c0 -5 -2 -10 -4 -10 -3 0 -8 5 -11 10
-3 6 -1 10 4 10 6 0 11 -4 11 -10z m35 -40 c3 -6 -1 -7 -9 -4 -18 7 -21 14 -7
14 6 0 13 -4 16 -10z m-5200 -380 c4 -6 1 -9 -7 -8 -7 2 -12 -2 -11 -8 1 -6
-5 -11 -13 -11 -11 0 -11 4 3 19 19 21 20 21 28 8z m5272 -86 c-3 -3 -12 -4
-19 -1 -8 3 -5 6 6 6 11 1 17 -2 13 -5z m-4808 -31 c12 -11 18 -23 13 -30 -7
-12 -196 -63 -229 -62 -10 0 14 8 52 18 39 11 89 24 113 30 44 12 55 33 25 50
-10 6 -13 11 -7 11 7 0 21 -8 33 -17z m-242 -99 c-3 -3 -12 -4 -19 -1 -8 3 -5
6 6 6 11 1 17 -2 13 -5z m-44 -11 c-7 -2 -21 -2 -30 0 -10 3 -4 5 12 5 17 0
24 -2 18 -5z m217 -167 c0 -2 -7 -9 -15 -16 -13 -11 -14 -10 -9 4 5 14 24 23
24 12z m207 -52 c-3 -3 -12 -4 -19 -1 -8 3 -5 6 6 6 11 1 17 -2 13 -5z m113
-280 c0 -8 -19 -13 -24 -6 -3 5 1 9 9 9 8 0 15 -2 15 -3z m-3 -30 c-3 -3 -12
-4 -19 -1 -8 3 -5 6 6 6 11 1 17 -2 13 -5z m-7 -88 c0 -2 -7 -7 -16 -10 -8 -3
-12 -2 -9 4 6 10 25 14 25 6z m-73 -80 c-12 -24 -22 -25 -22 -3 0 7 6 15 15
19 8 4 16 7 17 7 0 1 -4 -10 -10 -23z m240 -491 c0 -8 -4 -12 -9 -9 -5 3 -6
10 -3 15 9 13 12 11 12 -6z m4053 -189 c0 -3 -4 -8 -10 -11 -5 -3 -10 -1 -10
4 0 6 5 11 10 11 6 0 10 -2 10 -4z m-73 -418 c-3 -8 -6 -5 -6 6 -1 11 2 17 5
13 3 -3 4 -12 1 -19z m23 -172 c0 -3 -4 -8 -10 -11 -5 -3 -10 -1 -10 4 0 6 5
11 10 11 6 0 10 -2 10 -4z m-10 -71 c11 -13 10 -14 -4 -9 -9 3 -16 10 -16 15
0 13 6 11 20 -6z m-3663 -51 c-3 -3 -12 -4 -19 -1 -8 3 -5 6 6 6 11 1 17 -2
13 -5z m93 -184 c0 -5 -2 -10 -4 -10 -3 0 -8 5 -11 10 -3 6 -1 10 4 10 6 0 11
-4 11 -10z m120 -180 c0 -5 -2 -10 -4 -10 -3 0 -8 5 -11 10 -3 6 -1 10 4 10 6
0 11 -4 11 -10z m20 -40 c0 -5 -2 -10 -4 -10 -3 0 -8 5 -11 10 -3 6 -1 10 4
10 6 0 11 -4 11 -10z m4423 -333 c4 3 7 4 7 1 0 -3 -8 -12 -17 -19 -10 -7 -15
-9 -11 -5 4 5 2 16 -5 25 -10 14 -10 14 4 4 9 -7 19 -10 22 -6z m52 4 c3 -5 2
-12 -3 -15 -5 -3 -9 1 -9 9 0 17 3 19 12 6z m-125 -45 c0 -2 -7 -7 -16 -10 -8
-3 -12 -2 -9 4 6 10 25 14 25 6z m-295 -106 c3 -5 1 -10 -4 -10 -6 0 -11 5
-11 10 0 6 2 10 4 10 3 0 8 -4 11 -10z m-3235 -42 c0 -6 -6 -5 -15 2 -8 7 -15
14 -15 16 0 2 7 1 15 -2 8 -4 15 -11 15 -16z m90 -212 c0 -2 -7 -7 -16 -10 -8
-3 -12 -2 -9 4 6 10 25 14 25 6z"/>
<path d="M3004 6809 c-4 -7 -3 -9 4 -5 5 3 13 0 15 -6 4 -9 6 -10 6 -1 1 17
-16 25 -25 12z"/>
<path d="M3270 6786 c0 -2 7 -7 16 -10 8 -3 12 -2 9 4 -6 10 -25 14 -25 6z"/>
<path d="M3388 6583 c7 -3 16 -2 19 1 4 3 -2 6 -13 5 -11 0 -14 -3 -6 -6z"/>
<path d="M3398 6553 c6 -2 9 -10 6 -15 -4 -7 -2 -8 5 -4 13 9 5 26 -12 25 -9
0 -8 -2 1 -6z"/>
<path d="M1566 6383 c-6 -14 -5 -15 5 -6 7 7 10 15 7 18 -3 3 -9 -2 -12 -12z"/>
<path d="M1396 6255 c-3 -8 -1 -15 4 -15 6 0 10 7 10 15 0 8 -2 15 -4 15 -2 0
-6 -7 -10 -15z"/>
<path d="M5235 6201 c-3 -5 -2 -12 3 -15 5 -3 9 1 9 9 0 17 -3 19 -12 6z"/>
<path d="M1295 6150 c-3 -5 -1 -10 4 -10 6 0 11 5 11 10 0 6 -2 10 -4 10 -3 0
-8 -4 -11 -10z"/>
<path d="M5333 6075 c0 -8 4 -12 9 -9 5 3 6 10 3 15 -9 13 -12 11 -12 -6z"/>
<path d="M1160 5760 c-9 -6 -10 -10 -3 -10 6 0 15 5 18 10 8 12 4 12 -15 0z"/>
<path d="M5667 5219 c7 -7 15 -10 18 -7 3 3 -2 9 -12 12 -14 6 -15 5 -6 -5z"/>
<path d="M5695 5090 c-3 -6 1 -7 9 -4 18 7 21 14 7 14 -6 0 -13 -4 -16 -10z"/>
<path d="M1227 4983 c-4 -3 -7 -13 -7 -21 0 -18 13 -7 16 13 2 17 1 18 -9 8z"/>
<path d="M1173 4455 c0 -8 4 -15 9 -15 4 0 8 7 8 15 0 8 -4 15 -8 15 -5 0 -9
-7 -9 -15z"/>
<path d="M1034 3568 c-4 -6 -3 -8 4 -4 5 3 12 1 14 -5 2 -6 12 -10 23 -8 16 4
15 6 -8 16 -19 9 -28 9 -33 1z"/>
<path d="M652 3450 c0 -14 2 -19 5 -12 2 6 2 18 0 25 -3 6 -5 1 -5 -13z"/>
<path d="M566 3342 c-2 -4 2 -16 10 -27 8 -10 14 -14 14 -8 0 7 -5 15 -10 18
-6 4 -8 11 -5 16 4 5 4 9 1 9 -3 0 -7 -3 -10 -8z"/>
<path d="M739 3203 c-6 -33 -5 -53 2 -53 5 0 7 -6 5 -12 -1 -7 -1 -10 1 -5 3
4 9 4 15 1 5 -4 3 5 -6 18 -9 14 -14 33 -10 42 3 9 3 16 0 16 -3 0 -7 -3 -7
-7z"/>
<path d="M1243 2715 c0 -7 6 -11 14 -8 7 3 13 6 13 8 0 2 -6 5 -13 8 -8 3 -14
-1 -14 -8z"/>
<path d="M5615 1961 c-3 -5 -2 -12 3 -15 5 -3 9 1 9 9 0 17 -3 19 -12 6z"/>
<path d="M5565 1750 c-3 -5 -1 -10 6 -10 8 0 7 -5 -2 -17 -13 -16 -12 -17 3
-5 9 8 14 20 11 28 -6 17 -10 17 -18 4z"/>
<path d="M5564 1670 c1 -16 4 -31 7 -34 3 -3 5 4 4 17 -1 12 2 25 7 28 5 3 3
9 -4 12 -10 3 -14 -3 -14 -23z"/>
<path d="M5564 1494 c0 -12 4 -20 8 -18 5 3 6 10 3 15 -4 5 -1 9 4 9 6 0 11 4
11 8 0 5 -6 9 -13 9 -7 0 -13 -11 -13 -23z"/>
<path d="M1810 1430 c0 -5 5 -10 11 -10 5 0 7 5 4 10 -3 6 -8 10 -11 10 -2 0
-4 -4 -4 -10z"/>
<path d="M1955 1170 c-3 -5 -1 -10 4 -10 6 0 11 5 11 10 0 6 -2 10 -4 10 -3 0
-8 -4 -11 -10z"/>
<path d="M5590 1136 c0 -2 7 -7 16 -10 8 -3 12 -2 9 4 -6 10 -25 14 -25 6z"/>
<path d="M1988 1093 c6 -2 10 -8 8 -12 -3 -4 1 -8 9 -8 11 0 12 4 4 14 -6 7
-17 13 -23 12 -7 0 -6 -2 2 -6z"/>
<path d="M2130 870 c0 -5 5 -10 11 -10 5 0 7 5 4 10 -3 6 -8 10 -11 10 -2 0
-4 -4 -4 -10z"/>
<path d="M5728 612 c-3 -11 -1 -26 4 -33 8 -11 9 -10 5 3 -3 9 -2 18 3 20 5 2
6 9 1 16 -6 11 -9 9 -13 -6z"/>
<path d="M5750 570 c0 -5 5 -10 10 -10 6 0 10 5 10 10 0 6 -4 10 -10 10 -5 0
-10 -4 -10 -10z"/>
<path d="M5983 443 c0 -8 6 -9 19 -2 10 5 18 11 18 12 0 2 -8 3 -18 3 -10 0
-19 -6 -19 -13z"/>
<path d="M2853 434 c0 -8 2 -12 5 -9 3 2 13 0 23 -6 27 -14 24 -4 -4 14 -20
13 -24 13 -24 1z"/>
<path d="M5945 440 c-3 -6 1 -7 9 -4 18 7 21 14 7 14 -6 0 -13 -4 -16 -10z"/>
<path d="M2965 290 c-3 -6 1 -7 9 -4 18 7 21 14 7 14 -6 0 -13 -4 -16 -10z"/>
<path d="M2990 230 c0 -5 5 -10 11 -10 5 0 7 5 4 10 -3 6 -8 10 -11 10 -2 0
-4 -4 -4 -10z"/>
<path d="M3013 95 c0 -8 4 -12 9 -9 5 3 6 10 3 15 -9 13 -12 11 -12 -6z"/>
<path d="M646 16 c3 -9 13 -16 22 -16 8 0 13 1 11 3 -2 1 -12 9 -22 16 -15 12
-17 12 -11 -3z"/>
</g>
</svg>
